<svg xmlns="http://www.w3.org/2000/svg" viewBox="0 0 240 240">
  <defs>
    <radialGradient id="ibGradient" cx="50%" cy="50%" r="60%">
      <stop offset="0%" stop-color="#5ac4fb"/>
      <stop offset="100%" stop-color="#0268bb"/>
    </radialGradient>
  </defs>
  <circle cx="120" cy="120" r="110" fill="url(#ibGradient)"/>
  <circle cx="120" cy="120" r="90" fill="#0f4c81"/>
  <circle cx="120" cy="120" r="72" fill="#1f9cea"/>
  <path d="M86 74h24v92h-24z" fill="#ffffff"/>
  <circle cx="98" cy="58" r="14" fill="#ffffff"/>
  <path d="M128 74c18 0 32 14 32 32s-14 32-32 32c-7 0-14-2-19-6l-17 8v-90h24v40c0 8 6 14 14 14z" fill="#ffffff"/>
  <path d="M128 74h24c18 0 32 14 32 32s-14 32-32 32h-24v-64z" fill="#ffffff" opacity="0.05"/>
</svg>
